<?xml version="1.0" encoding="utf-8"?>
<!-- Generator: Adobe Illustrator 22.0.1, SVG Export Plug-In . SVG Version: 6.00 Build 0)  -->
<svg version="1.1" id="Camada_1" xmlns="http://www.w3.org/2000/svg" xmlns:xlink="http://www.w3.org/1999/xlink" x="0px" y="0px"
	 viewBox="0 0 90 160" style="enable-background:new 0 0 90 160;" xml:space="preserve">
<style type="text/css">
	.st0{fill:none;stroke:#CF1E15;stroke-width:4;stroke-miterlimit:10;}
	.st1{fill:none;stroke:#FFFFFF;stroke-width:4;stroke-miterlimit:10;}
	.st2{fill:#FFFFFF;}
</style>
<g id="XMLID_80_">
	<rect id="XMLID_85_" x="5.1" y="7.4" class="st0" width="30.9" height="38.8"/>
	<rect id="XMLID_84_" x="47.2" y="7.4" class="st1" width="30.9" height="38.8"/>
	<rect id="XMLID_83_" x="5.1" y="57.7" class="st1" width="30.9" height="38.8"/>
	<rect id="XMLID_82_" x="47.2" y="57.7" class="st1" width="30.9" height="38.8"/>
	<g id="XMLID_81_">
		<path class="st2" d="M3.6,119.1h4.4v23.5H3.6V119.1z"/>
		<path class="st2" d="M23.7,119.1h4.5v15.6c0,2.5-0.2,4.2-0.6,5.2c-0.4,1-1,1.8-1.9,2.4c-0.9,0.6-2,0.9-3.3,0.9
			c-2.6,0-4.8-1.1-6.6-3.4l3.2-3c0.7,0.8,1.3,1.4,1.8,1.6c0.5,0.3,1,0.4,1.5,0.4c0.5,0,0.8-0.2,1.1-0.6c0.2-0.4,0.4-1.3,0.4-2.7
			V119.1z"/>
		<path class="st2" d="M56.6,123.2l-3.1,3c-2.1-2.2-4.5-3.4-7.2-3.4c-2.2,0-4.1,0.8-5.7,2.3c-1.5,1.5-2.3,3.4-2.3,5.7
			c0,1.6,0.3,3,1,4.2s1.6,2.2,2.9,2.9c1.2,0.7,2.6,1,4.2,1c1.3,0,2.5-0.2,3.6-0.7c1.1-0.5,2.3-1.4,3.5-2.6l3,3.2
			c-1.7,1.7-3.4,2.9-4.9,3.5s-3.3,1-5.3,1c-3.7,0-6.6-1.2-9-3.5c-2.3-2.3-3.5-5.3-3.5-8.9c0-2.3,0.5-4.4,1.6-6.2
			c1.1-1.8,2.6-3.3,4.6-4.4c2-1.1,4.1-1.7,6.4-1.7c1.9,0,3.8,0.4,5.6,1.2S55.3,121.7,56.6,123.2z"/>
		<path class="st2" d="M70.9,119.1h4.5l9,23.5h-4.7l-1.8-4.8h-9.6l-1.9,4.8h-4.6L70.9,119.1z M73.2,125.3l-3.2,8.1h6.3L73.2,125.3z"
			/>
	</g>
</g>
</svg>
