<?xml version="1.0" encoding="utf-8"?>
<!-- Generator: Adobe Illustrator 22.0.1, SVG Export Plug-In . SVG Version: 6.00 Build 0)  -->
<svg version="1.1" id="Camada_1" xmlns="http://www.w3.org/2000/svg" xmlns:xlink="http://www.w3.org/1999/xlink" x="0px" y="0px"
	 viewBox="0 0 118.2 118.2" style="enable-background:new 0 0 118.2 118.2;" xml:space="preserve">
<style type="text/css">
	.st0{fill:#FFFFFF;}
</style>
<title>icon-instagram</title>
<g id="Camada_2_1_">
	<g id="Camada_1-2">
		<g id="_Grupo_">
			<path id="_Caminho_composto_" class="st0" d="M59.1,70.9c6.5,0,11.8-5.3,11.8-11.8c0-6.5-5.3-11.8-11.8-11.8
				c-6.5,0-11.7,5.3-11.8,11.8C47.3,65.6,52.5,70.9,59.1,70.9z"/>
			<path id="_Caminho_composto_2" class="st0" d="M84.9,44.6V33.2h-1.5h-9.9v11.4L84.9,44.6z"/>
			<path id="_Caminho_composto_3" class="st0" d="M59.1,0C26.4,0,0,26.5,0,59.1s26.5,59.1,59.1,59.1c32.6,0,59.1-26.5,59.1-59.1
				C118.1,26.5,91.7,0,59.1,0z M92.7,52.2v27.5c0,7.2-5.8,13-13,13H38.5c-7.2,0-13-5.8-13-13V38.5c0-7.2,5.8-13,13-13h41.2
				c7.2,0,13,5.8,13,13l0,0L92.7,52.2z"/>
			<path id="_Caminho_composto_4" class="st0" d="M77.5,59.1c0,10.2-8.2,18.4-18.4,18.4c-10.2,0-18.4-8.2-18.4-18.4
				c0-2.4,0.5-4.7,1.3-6.9H32v27.5c0,3.6,2.9,6.4,6.4,6.4l0,0h41.3c3.6,0,6.4-2.9,6.4-6.4c0,0,0,0,0,0V52.2h-10
				C77,54.4,77.5,56.7,77.5,59.1L77.5,59.1z"/>
		</g>
	</g>
</g>
</svg>
