<?xml version="1.0" encoding="utf-8"?>
<!-- Generator: Adobe Illustrator 22.0.1, SVG Export Plug-In . SVG Version: 6.00 Build 0)  -->
<svg version="1.1" id="Camada_1" xmlns="http://www.w3.org/2000/svg" xmlns:xlink="http://www.w3.org/1999/xlink" x="0px" y="0px"
	 viewBox="0 0 118.2 118.2" style="enable-background:new 0 0 118.2 118.2;" xml:space="preserve">
<style type="text/css">
	.st0{fill:#FFFFFF;}
</style>
<title>icon-flickr</title>
<g id="Camada_2_1_">
	<g id="Camada_1-2">
		<g id="_Grupo_">
			<path id="_Caminho_composto_" class="st0" d="M59.1,0C26.4,0,0,26.5,0,59.1s26.5,59.1,59.1,59.1s59.1-26.5,59.1-59.1
				C118.2,26.4,91.7,0,59.1,0z M37.3,73.9c-8.3,0-15-6.7-15-15s6.7-15,15-15s15,6.7,15,15l0,0C52.3,67.2,45.6,73.9,37.3,73.9z
				 M81,73.9c-8.3,0-15-6.7-15-15s6.7-15,15-15s15,6.7,15,15l0,0C96,67.2,89.3,73.9,81,73.9z"/>
		</g>
	</g>
</g>
</svg>
