<?xml version="1.0" encoding="utf-8"?>
<!-- Generator: Adobe Illustrator 22.0.1, SVG Export Plug-In . SVG Version: 6.00 Build 0)  -->
<svg version="1.1" id="Camada_1" xmlns="http://www.w3.org/2000/svg" xmlns:xlink="http://www.w3.org/1999/xlink" x="0px" y="0px"
	 viewBox="0 0 116.9 116.9" style="enable-background:new 0 0 116.9 116.9;" xml:space="preserve">
<style type="text/css">
	.st0{fill:#FFFFFF;}
</style>
<title>icon-youtube</title>
<g id="Camada_2_1_">
	<g id="Camada_1-2">
		<path class="st0" d="M47.8,71.2L74,57.6L47.8,44V71.2z"/>
		<path class="st0" d="M58.4,0C26.2,0,0,26.1,0,58.4s26.1,58.4,58.4,58.5c32.3,0,58.4-26.1,58.5-58.4c0,0,0,0,0,0
			C116.9,26.2,90.7,0,58.4,0C58.4,0,58.4,0,58.4,0z M98.2,77.9c-1,4.3-4.5,7.5-8.9,8.1c-10.2,1.2-20.6,1.2-30.9,1.2
			s-20.7,0-30.9-1.2c-4.4-0.5-8-3.8-8.9-8.1c-1.5-6.2-1.5-13.1-1.5-19.5s0-13.3,1.5-19.5c0.9-4.3,4.5-7.6,8.9-8.1
			c10.2-1.1,20.6-1.1,30.9-1.1s20.7,0,30.9,1.1c4.4,0.5,8,3.8,8.9,8.1c1.4,6.3,1.4,13.1,1.4,19.5S99.7,71.7,98.2,77.9z"/>
	</g>
</g>
</svg>
